<svg width="1920" height="1080" viewBox="0 0 1920 1080" fill="none" xmlns="http://www.w3.org/2000/svg">
<path d="M1920 -0.00012207H0.000976562V1080H1920V-0.00012207Z" fill="url(#paint0_radial_2073_3)"/>
<mask id="mask0_2073_3" style="mask-type:luminance" maskUnits="userSpaceOnUse" x="0" y="-1" width="1921" height="1081">
<path d="M1920 -0.000244141H0.00195312V1080H1920V-0.000244141Z" fill="white"/>
</mask>
<g mask="url(#mask0_2073_3)">
<path d="M1909.2 294.278C1878.36 290.627 1846.84 294.602 1816.8 301.881C1788.89 308.663 1761.98 320.198 1739.04 337.78C1716.16 355.634 1698.04 378.856 1686.29 405.388C1663.44 456.083 1657.93 512.373 1648.82 566.567C1640.37 616.765 1627.22 667.785 1591.19 705.757C1545.39 754.163 1477.68 770.795 1413.18 772.48C1341.9 774.337 1270.9 760.621 1199.51 763.84C1134.11 766.734 1067.65 786.714 1022.91 836.804C986.193 877.996 967.941 933.097 963.621 987.486C961.213 1018.41 962.876 1049.51 968.568 1080H1920V295.919C1916.42 295.271 1912.83 294.71 1909.2 294.278Z" fill="url(#paint1_linear_2073_3)"/>
<path d="M771.12 962.538C733.99 921.606 679.385 902.209 628.56 884.173C578.621 866.418 526.651 849.613 485.59 814.621C464.069 796.119 446.566 773.404 434.16 747.877C418.695 716.493 409.428 682.386 401.156 648.518C392.753 614.13 385.496 579.398 374.264 545.767C363.894 513.926 348.461 483.964 328.558 457.034C292.421 408.888 240.949 375.343 184.983 354.52C139.623 337.651 92.1033 329.097 43.8705 326.138C29.3337 325.231 14.6674 324.82 0.000976562 324.993V1080H820.368C816.048 1036.95 800.474 994.938 771.12 962.538Z" fill="url(#paint2_linear_2073_3)"/>
<path d="M1241.57 1171.99C1243.73 1100.71 1285.01 1033.75 1342.94 992.281C1400.87 950.809 1473.72 933.227 1544.96 934.415C1595.4 935.257 1648.23 944.588 1694.58 924.695C1719.34 913.987 1740.07 895.7 1753.77 872.466C1768.37 847.561 1773.99 818.574 1783.19 791.207C1808.5 715.953 1865.09 649.814 1939.31 621.626C2013.53 593.438 2104.4 607.629 2160.73 663.573V1130.52L1241.57 1171.99Z" fill="url(#paint3_linear_2073_3)"/>
<path d="M779.759 1148.6C786.637 1101.76 775.453 1054.06 748.474 1015.15C721.494 976.25 680.736 949.056 634.456 939.08C578.772 927.071 521.251 940.96 465.177 951.047C409.104 961.134 348.3 966.707 297.842 940.247C239.933 909.856 209.952 845.207 187.099 783.841C164.247 722.476 142.02 656.639 91.2388 615.405C42.9413 576.179 -27.885 567.021 -84.585 592.66V1135.12L779.759 1148.6Z" fill="url(#paint4_linear_2073_3)"/>
<g style="mix-blend-mode:overlay">
<path d="M-147.115 664.415C-120.763 626.788 -69.8949 617.176 -26.8678 617.521C18.0818 617.867 63.9601 629.769 100.68 656.401C140.316 685.129 162.11 729.733 172.997 776.432C178.376 800.691 181.922 825.319 183.602 850.11C185.762 877.693 187.382 905.514 193.387 932.622C203.321 978.09 226.088 1019.75 258.986 1052.67C292.775 1085.97 336.889 1106.77 384.072 1111.66C408.946 1114.02 434.041 1111.49 457.944 1104.21C484.468 1096.28 509.568 1084.25 535.25 1073.97C586.226 1053.65 639.47 1036.82 694.377 1032.05C742.696 1027.86 791.577 1033.45 836.051 1053.54C874.931 1071.08 909.858 1098.73 931.545 1135.81C936.956 1145.08 941.455 1154.84 944.98 1164.97C946.686 1169.85 954.527 1167.76 952.799 1162.81C923.034 1077.71 833.373 1029.28 747.21 1023.36C691.634 1019.54 636.078 1030.64 583.439 1047.81C556.699 1056.45 530.584 1067 504.664 1077.9C479.112 1088.7 453.04 1099.5 425.349 1103.02C375.432 1109.5 323.635 1094.04 283.848 1063.58C245.573 1034.27 218.378 991.611 205.073 945.517C190.147 893.893 193.884 839.072 183.473 786.541C174.314 740.015 155.717 693.813 119.796 661.456C85.7977 630.892 41.0425 614.886 -4.0798 610.588C-47.2797 606.462 -97.2621 611.128 -132.902 638.236C-141.081 644.451 -148.238 651.907 -154.113 660.333C-157.094 664.653 -150.074 668.649 -147.115 664.415Z" fill="white"/>
</g>
<g style="mix-blend-mode:overlay">
<path d="M2033.9 284.687C2021.31 283.175 2007.98 285.4 1995.82 288.273C1975.79 293.18 1956.54 300.842 1938.62 311.039C1913.87 325.085 1891.25 342.592 1871.45 363.03C1845.36 390.069 1823.04 420.496 1805.07 453.491C1780.81 497.166 1762.91 544.211 1749.26 592.206C1740.85 621.798 1734.29 651.779 1728.54 681.997C1723.16 710.315 1717.74 738.762 1708.69 766.237C1699.77 793.237 1686.9 819.373 1667.15 840.152C1647.41 860.931 1621.66 875.857 1594.62 885.512C1534.88 906.918 1470.92 905.233 1408.47 908.991C1374.93 911.022 1341.17 914.672 1308.88 924.414C1282.45 932.37 1257.52 944.599 1235.05 960.615C1191.25 991.836 1157.83 1035.48 1139.1 1085.9C1134.58 1098.24 1131.05 1110.92 1128.56 1123.82C1127.57 1128.92 1135.36 1131.1 1136.36 1125.98C1147 1072.99 1174.16 1024.72 1213.92 988.112C1233.45 969.983 1255.73 955.066 1279.93 943.918C1309.09 930.483 1340.89 923.679 1372.66 920.159C1435.84 913.031 1500.1 917.329 1562.52 903.224C1590.34 896.939 1617.76 887.089 1641.77 871.494C1665.19 856.345 1684.53 835.672 1698.09 811.295C1726.53 760.232 1731.91 700.487 1744.44 644.413C1756.23 591.601 1772.32 539.459 1795.33 490.405C1812.37 454.118 1833.21 419.32 1859.13 388.648C1878.38 365.461 1900.84 345.146 1925.84 328.319C1944.18 315.991 1964.18 306.319 1985.24 299.591C1999.56 295.142 2012.84 292.247 2027.31 292.399C2029.48 292.42 2031.64 292.557 2033.79 292.809C2038.95 293.414 2038.91 285.314 2033.79 284.709L2033.9 284.687Z" fill="white"/>
</g>
<path d="M2254.24 944.524C2207.33 886.83 2129.24 860.651 2054.92 863.394C1980.59 866.137 1909.44 894.584 1844.19 930.354C1811.79 948.088 1780.29 967.744 1746.19 981.913C1621.36 1033.75 1478.89 1006.47 1348.53 970.703C1297.95 956.814 1245.85 941.608 1193.83 948.606C1096.63 961.674 1024.71 1050.32 994.25 1143.61H2255.17L2254.24 944.524Z" fill="url(#paint5_linear_2073_3)"/>
<path d="M-82.6821 403.919C-30.583 389.512 27.2401 407.418 67.9344 442.972C108.629 478.526 133.404 529.718 144.895 582.529C156.386 635.341 155.501 690.054 151.505 743.946C147.941 792.071 141.958 840.735 149.906 888.342C157.855 935.948 182.306 983.598 225.139 1006.04C271.73 1030.53 327.976 1020.49 380.486 1024.05C430.36 1027.42 479.846 1044.27 518.92 1075.4C557.995 1106.52 586.031 1152.4 591.842 1202.04H-42.9814L-82.6821 403.919Z" fill="url(#paint6_linear_2073_3)"/>
<path style="mix-blend-mode:overlay" d="M1666.96 318.643C1642.52 318.664 1618.64 325.93 1598.33 339.521C1578.03 353.112 1562.21 372.419 1552.87 395.001C1543.53 417.583 1541.1 442.427 1545.88 466.39C1550.66 490.354 1562.44 512.363 1579.73 529.634C1597.01 546.905 1619.03 558.664 1643 563.423C1666.97 568.182 1691.81 565.729 1714.38 556.373C1736.96 547.017 1756.25 531.178 1769.82 510.859C1783.4 490.539 1790.64 466.652 1790.64 442.216C1790.64 425.979 1787.44 409.901 1781.22 394.902C1775.01 379.902 1765.89 366.275 1754.41 354.798C1742.92 343.322 1729.29 334.222 1714.28 328.018C1699.28 321.814 1683.2 318.629 1666.96 318.643ZM1666.96 522.244C1651.16 522.244 1635.71 517.56 1622.57 508.783C1609.43 500.006 1599.19 487.53 1593.13 472.933C1587.08 458.336 1585.49 442.272 1588.57 426.772C1591.64 411.272 1599.24 397.032 1610.41 385.85C1621.58 374.669 1635.81 367.049 1651.3 363.953C1666.8 360.857 1682.86 362.424 1697.47 368.457C1712.07 374.489 1724.56 384.716 1733.36 397.845C1742.15 410.973 1746.86 426.414 1746.88 442.216C1746.89 452.72 1744.84 463.125 1740.83 472.833C1736.82 482.542 1730.93 491.365 1723.51 498.798C1716.09 506.231 1707.27 512.127 1697.57 516.15C1687.86 520.173 1677.46 522.244 1666.96 522.244Z" fill="url(#paint7_linear_2073_3)"/>
<path style="mix-blend-mode:overlay" d="M432.003 640.461C407.562 640.461 383.671 647.708 363.349 661.287C343.027 674.865 327.189 694.165 317.836 716.745C308.483 739.325 306.036 764.171 310.804 788.142C315.572 812.113 327.341 834.132 344.623 851.414C361.905 868.696 383.924 880.465 407.895 885.233C431.866 890.001 456.712 887.554 479.292 878.201C501.872 868.848 521.172 853.009 534.75 832.688C548.329 812.366 555.576 788.475 555.576 764.034C555.57 731.262 542.549 699.834 519.376 676.661C496.203 653.488 464.775 640.466 432.003 640.461ZM432.003 844.062C416.196 844.062 400.744 839.375 387.602 830.593C374.459 821.811 364.215 809.33 358.166 794.726C352.117 780.123 350.535 764.053 353.618 748.551C356.702 733.048 364.314 718.807 375.491 707.63C386.668 696.453 400.908 688.842 416.411 685.758C431.914 682.674 447.983 684.257 462.587 690.306C477.19 696.355 489.672 706.598 498.454 719.741C507.235 732.884 511.923 748.335 511.923 764.142C511.923 785.338 503.502 805.666 488.515 820.654C473.527 835.642 453.199 844.062 432.003 844.062Z" fill="url(#paint8_linear_2073_3)"/>
<g style="mix-blend-mode:overlay">
<mask id="mask1_2073_3" style="mask-type:luminance" maskUnits="userSpaceOnUse" x="1389" y="968" width="697" height="157">
<path d="M1393.2 1105.92C1402.8 1075.35 1419.72 1047.59 1442.49 1025.04C1465.25 1002.5 1493.17 985.846 1523.83 976.535C1554.49 967.224 1586.95 965.535 1618.41 971.614C1649.87 977.693 1679.37 991.356 1704.35 1011.42C1724.65 1027.73 1741.65 1048.01 1762.9 1063.09C1784.16 1078.16 1811.94 1087.67 1836.34 1078.62C1856.35 1071.21 1870.04 1053.13 1886.46 1039.52C1901.63 1026.94 1919.47 1017.98 1938.62 1013.34C1957.78 1008.7 1977.74 1008.49 1996.98 1012.73C2016.23 1016.98 2034.25 1025.56 2049.68 1037.83C2065.11 1050.1 2077.53 1065.72 2086 1083.52V1124.36H1389.72L1393.2 1105.92Z" fill="white"/>
</mask>
<g mask="url(#mask1_2073_3)">
<path d="M2279.1 711.33L1920.56 1388.79" stroke="white" stroke-width="4.31999" stroke-miterlimit="10"/>
<path d="M2233.25 711.33L1874.71 1388.79" stroke="white" stroke-width="4.31999" stroke-miterlimit="10"/>
<path d="M2187.39 711.33L1828.85 1388.79" stroke="white" stroke-width="4.31999" stroke-miterlimit="10"/>
<path d="M2141.53 711.33L1782.99 1388.79" stroke="white" stroke-width="4.31999" stroke-miterlimit="10"/>
<path d="M2095.67 711.33L1737.14 1388.79" stroke="white" stroke-width="4.31999" stroke-miterlimit="10"/>
<path d="M2049.82 711.33L1691.28 1388.79" stroke="white" stroke-width="4.31999" stroke-miterlimit="10"/>
<path d="M2003.94 711.33L1645.42 1388.79" stroke="white" stroke-width="4.31999" stroke-miterlimit="10"/>
<path d="M1958.08 711.33L1599.57 1388.79" stroke="white" stroke-width="4.31999" stroke-miterlimit="10"/>
<path d="M1912.23 711.33L1553.71 1388.79" stroke="white" stroke-width="4.31999" stroke-miterlimit="10"/>
<path d="M1866.37 711.33L1507.83 1388.79" stroke="white" stroke-width="4.31999" stroke-miterlimit="10"/>
<path d="M1820.51 711.33L1461.98 1388.79" stroke="white" stroke-width="4.31999" stroke-miterlimit="10"/>
<path d="M1774.66 711.33L1416.12 1388.79" stroke="white" stroke-width="4.31999" stroke-miterlimit="10"/>
<path d="M1728.8 711.33L1370.26 1388.79" stroke="white" stroke-width="4.31999" stroke-miterlimit="10"/>
<path d="M1682.94 711.33L1324.4 1388.79" stroke="white" stroke-width="4.31999" stroke-miterlimit="10"/>
<path d="M1637.09 711.33L1278.55 1388.79" stroke="white" stroke-width="4.31999" stroke-miterlimit="10"/>
<path d="M1591.23 711.33L1232.69 1388.79" stroke="white" stroke-width="4.31999" stroke-miterlimit="10"/>
<path d="M1545.37 711.33L1186.84 1388.79" stroke="white" stroke-width="4.31999" stroke-miterlimit="10"/>
<path d="M1499.49 711.33L1140.98 1388.79" stroke="white" stroke-width="4.31999" stroke-miterlimit="10"/>
</g>
</g>
</g>
<path d="M211.855 428.371C211.855 430.708 211.161 432.994 209.862 434.937C208.563 436.88 206.716 438.395 204.556 439.288C202.396 440.182 200.019 440.415 197.727 439.957C195.434 439.5 193.329 438.372 191.678 436.718C190.026 435.063 188.902 432.956 188.449 430.662C187.996 428.369 188.233 425.993 189.13 423.834C190.028 421.676 191.546 419.832 193.491 418.536C195.437 417.24 197.724 416.551 200.061 416.555C201.612 416.555 203.147 416.861 204.58 417.455C206.012 418.049 207.313 418.92 208.408 420.017C209.504 421.115 210.372 422.417 210.963 423.851C211.555 425.284 211.858 426.82 211.855 428.371Z" fill="#86E4FD"/>
<path d="M271.381 428.371C271.381 430.708 270.687 432.994 269.388 434.937C268.089 436.88 266.242 438.395 264.082 439.288C261.922 440.182 259.545 440.415 257.253 439.957C254.96 439.5 252.855 438.372 251.203 436.718C249.552 435.063 248.428 432.956 247.975 430.662C247.521 428.369 247.759 425.993 248.656 423.834C249.554 421.676 251.071 419.832 253.017 418.536C254.963 417.24 257.25 416.551 259.587 416.555C261.139 416.553 262.675 416.856 264.109 417.449C265.542 418.042 266.845 418.913 267.941 420.011C269.037 421.109 269.905 422.413 270.495 423.847C271.086 425.282 271.387 426.819 271.381 428.371Z" fill="#86E4FD"/>
<path d="M330.933 428.371C330.933 430.707 330.24 432.992 328.941 434.935C327.643 436.878 325.798 438.392 323.639 439.286C321.48 440.181 319.104 440.415 316.812 439.959C314.52 439.503 312.415 438.378 310.763 436.725C309.11 435.073 307.985 432.968 307.529 430.676C307.073 428.384 307.307 426.008 308.202 423.849C309.096 421.69 310.61 419.845 312.553 418.547C314.496 417.248 316.781 416.555 319.117 416.555C320.67 416.553 322.208 416.856 323.642 417.449C325.077 418.042 326.381 418.912 327.478 420.01C328.576 421.107 329.446 422.411 330.039 423.846C330.632 425.281 330.935 426.818 330.933 428.371Z" fill="#86E4FD"/>
<path d="M390.463 428.371C390.463 430.708 389.77 432.994 388.471 434.937C387.171 436.88 385.325 438.395 383.165 439.288C381.004 440.182 378.628 440.415 376.335 439.957C374.043 439.5 371.937 438.372 370.286 436.718C368.634 435.063 367.511 432.956 367.057 430.662C366.604 428.369 366.841 425.993 367.739 423.834C368.636 421.676 370.154 419.832 372.1 418.536C374.046 417.24 376.332 416.551 378.67 416.555C380.221 416.553 381.758 416.856 383.191 417.449C384.625 418.042 385.927 418.913 387.023 420.011C388.119 421.109 388.987 422.413 389.578 423.847C390.168 425.282 390.469 426.819 390.463 428.371Z" fill="#86E4FD"/>
<path d="M450.016 428.371C450.016 430.707 449.323 432.992 448.025 434.935C446.727 436.878 444.881 438.392 442.722 439.286C440.563 440.181 438.188 440.415 435.896 439.959C433.604 439.503 431.499 438.378 429.846 436.725C428.194 435.073 427.069 432.968 426.613 430.676C426.157 428.384 426.391 426.008 427.285 423.849C428.179 421.69 429.694 419.845 431.637 418.547C433.58 417.248 435.864 416.555 438.201 416.555C439.753 416.553 441.291 416.856 442.726 417.449C444.161 418.042 445.464 418.912 446.562 420.01C447.66 421.107 448.53 422.411 449.123 423.846C449.715 425.281 450.019 426.818 450.016 428.371Z" fill="#86E4FD"/>
<path d="M509.544 428.371C509.544 430.708 508.851 432.994 507.552 434.937C506.252 436.88 504.406 438.395 502.246 439.288C500.086 440.182 497.709 440.415 495.416 439.957C493.124 439.5 491.019 438.372 489.367 436.718C487.716 435.063 486.592 432.956 486.138 430.662C485.685 428.369 485.922 425.993 486.82 423.834C487.717 421.676 489.235 419.832 491.181 418.536C493.127 417.24 495.413 416.551 497.751 416.555C499.302 416.553 500.839 416.856 502.272 417.449C503.706 418.042 505.008 418.913 506.104 420.011C507.2 421.109 508.068 422.413 508.659 423.847C509.249 425.282 509.55 426.819 509.544 428.371Z" fill="#86E4FD"/>
<path d="M1437.78 550.799C1437.78 553.137 1437.09 555.422 1435.79 557.366C1434.49 559.309 1432.64 560.823 1430.48 561.717C1428.32 562.611 1425.95 562.843 1423.65 562.386C1421.36 561.928 1419.26 560.801 1417.6 559.146C1415.95 557.491 1414.83 555.384 1414.38 553.091C1413.92 550.798 1414.16 548.421 1415.06 546.263C1415.96 544.104 1417.47 542.26 1419.42 540.965C1421.36 539.669 1423.65 538.98 1425.99 538.984C1427.54 538.984 1429.07 539.29 1430.51 539.884C1431.94 540.478 1433.24 541.348 1434.34 542.446C1435.43 543.543 1436.3 544.846 1436.89 546.279C1437.48 547.713 1437.79 549.249 1437.78 550.799Z" fill="#86E4FD"/>
<path d="M1497.33 550.799C1497.33 553.136 1496.64 555.42 1495.34 557.363C1494.04 559.306 1492.2 560.821 1490.04 561.715C1487.88 562.609 1485.5 562.843 1483.21 562.387C1480.92 561.931 1478.81 560.806 1477.16 559.154C1475.51 557.501 1474.38 555.396 1473.93 553.104C1473.47 550.812 1473.71 548.437 1474.6 546.278C1475.49 544.119 1477.01 542.273 1478.95 540.975C1480.9 539.677 1483.18 538.984 1485.52 538.984C1488.65 538.984 1491.66 540.229 1493.87 542.444C1496.09 544.66 1497.33 547.665 1497.33 550.799Z" fill="#86E4FD"/>
<path d="M1545.07 562.593C1551.59 562.593 1556.88 557.303 1556.88 550.778C1556.88 544.252 1551.59 538.962 1545.07 538.962C1538.54 538.962 1533.25 544.252 1533.25 550.778C1533.25 557.303 1538.54 562.593 1545.07 562.593Z" fill="#86E4FD"/>
<path d="M1616.41 550.799C1616.41 553.136 1615.72 555.42 1614.42 557.363C1613.12 559.306 1611.28 560.821 1609.12 561.715C1606.96 562.609 1604.59 562.843 1602.29 562.387C1600 561.931 1597.9 560.806 1596.24 559.154C1594.59 557.501 1593.47 555.396 1593.01 553.104C1592.55 550.812 1592.79 548.437 1593.68 546.278C1594.58 544.119 1596.09 542.273 1598.03 540.975C1599.98 539.677 1602.26 538.984 1604.6 538.984C1607.73 538.984 1610.74 540.229 1612.95 542.444C1615.17 544.66 1616.41 547.665 1616.41 550.799Z" fill="#86E4FD"/>
<path d="M1675.94 550.799C1675.94 553.137 1675.25 555.422 1673.95 557.366C1672.65 559.309 1670.8 560.823 1668.64 561.717C1666.48 562.611 1664.11 562.843 1661.81 562.386C1659.52 561.928 1657.42 560.801 1655.76 559.146C1654.11 557.491 1652.99 555.384 1652.54 553.091C1652.08 550.798 1652.32 548.421 1653.22 546.263C1654.12 544.104 1655.63 542.26 1657.58 540.965C1659.52 539.669 1661.81 538.98 1664.15 538.984C1665.7 538.984 1667.23 539.29 1668.67 539.884C1670.1 540.478 1671.4 541.348 1672.5 542.446C1673.59 543.543 1674.46 544.846 1675.05 546.279C1675.64 547.713 1675.95 549.249 1675.94 550.799Z" fill="#86E4FD"/>
<path d="M1735.49 550.799C1735.49 553.136 1734.8 555.42 1733.5 557.363C1732.2 559.306 1730.36 560.821 1728.2 561.715C1726.04 562.609 1723.67 562.843 1721.37 562.387C1719.08 561.931 1716.98 560.806 1715.32 559.154C1713.67 557.501 1712.55 555.396 1712.09 553.104C1711.63 550.812 1711.87 548.437 1712.76 546.278C1713.66 544.119 1715.17 542.273 1717.11 540.975C1719.06 539.677 1721.34 538.984 1723.68 538.984C1726.81 538.984 1729.82 540.229 1732.03 542.444C1734.25 544.66 1735.49 547.665 1735.49 550.799Z" fill="#86E4FD"/>
<defs>
<radialGradient id="paint0_radial_2073_3" cx="0" cy="0" r="1" gradientUnits="userSpaceOnUse" gradientTransform="translate(1394.24 555.4) scale(778.852 778.852)">
<stop stop-color="#460096"/>
<stop offset="1" stop-color="#1F0050"/>
</radialGradient>
<linearGradient id="paint1_linear_2073_3" x1="0.0033152" y1="686.447" x2="1920" y2="686.447" gradientUnits="userSpaceOnUse">
<stop stop-color="#17093D"/>
<stop offset="1" stop-color="#1F0050"/>
</linearGradient>
<linearGradient id="paint2_linear_2073_3" x1="0.000976562" y1="702.474" x2="1920" y2="702.474" gradientUnits="userSpaceOnUse">
<stop stop-color="#17093D"/>
<stop offset="1" stop-color="#1F0050"/>
</linearGradient>
<linearGradient id="paint3_linear_2073_3" x1="1241.57" y1="889.768" x2="2160.73" y2="889.768" gradientUnits="userSpaceOnUse">
<stop stop-color="#41018D"/>
<stop offset="1" stop-color="#6E1651"/>
</linearGradient>
<linearGradient id="paint4_linear_2073_3" x1="617.09" y1="1328.94" x2="-136.187" y2="649.922" gradientUnits="userSpaceOnUse">
<stop stop-color="#7126E2"/>
<stop offset="1" stop-color="#511EA5"/>
</linearGradient>
<linearGradient id="paint5_linear_2073_3" x1="2022.58" y1="1401.56" x2="1304.6" y2="754.379" gradientUnits="userSpaceOnUse">
<stop stop-color="#7126E2"/>
<stop offset="1" stop-color="#4F1EA2"/>
</linearGradient>
<linearGradient id="paint6_linear_2073_3" x1="-82.6821" y1="800.365" x2="591.842" y2="800.365" gradientUnits="userSpaceOnUse">
<stop stop-color="#1F0050"/>
<stop offset="1" stop-color="#94188F"/>
</linearGradient>
<linearGradient id="paint7_linear_2073_3" x1="1543.41" y1="442.216" x2="1790.53" y2="442.216" gradientUnits="userSpaceOnUse">
<stop stop-color="white"/>
<stop offset="1" stop-color="white" stop-opacity="0"/>
</linearGradient>
<linearGradient id="paint8_linear_2073_3" x1="308.472" y1="764.034" x2="555.619" y2="764.034" gradientUnits="userSpaceOnUse">
<stop stop-color="white"/>
<stop offset="1" stop-color="white" stop-opacity="0"/>
</linearGradient>
</defs>
</svg>
