<svg width="1920" height="1065" viewBox="0 0 1920 1065" fill="none" xmlns="http://www.w3.org/2000/svg">
<path d="M1920 0.00012207H0V1065H1920V0.00012207Z" fill="url(#paint0_radial_2111_2)"/>
<mask id="mask0_2111_2" style="mask-type:luminance" maskUnits="userSpaceOnUse" x="0" y="0" width="1921" height="1065">
<path d="M1920 0H0.000976562V1065H1920V0Z" fill="white"/>
</mask>
<g mask="url(#mask0_2111_2)">
<path d="M1909.2 290.191C1878.36 286.591 1846.84 290.51 1816.8 297.688C1788.89 304.377 1761.98 315.751 1739.04 333.089C1716.16 350.695 1698.04 373.594 1686.29 399.758C1663.44 449.749 1657.93 505.257 1648.81 558.698C1640.37 608.199 1627.21 658.51 1591.19 695.955C1545.39 743.688 1477.68 760.089 1413.18 761.751C1341.9 763.583 1270.9 750.057 1199.51 753.231C1134.11 756.085 1067.65 775.788 1022.91 825.182C986.192 865.801 967.94 920.137 963.62 973.771C961.212 1004.26 962.875 1034.93 968.567 1065H1920V291.81C1916.42 291.171 1912.83 290.617 1909.2 290.191Z" fill="url(#paint1_linear_2111_2)"/>
<path d="M771.119 949.169C733.989 908.806 679.384 889.679 628.559 871.893C578.62 854.385 526.651 837.813 485.589 803.307C464.068 785.062 446.565 762.662 434.159 737.49C418.694 706.542 409.427 672.909 401.155 639.511C392.752 605.601 385.495 571.351 374.263 538.187C363.893 506.788 348.46 477.243 328.557 450.686C292.42 403.209 240.948 370.13 184.982 349.597C139.622 332.961 92.1023 324.527 43.8695 321.608C29.3328 320.714 14.6664 320.309 0 320.48V1065H820.367C816.047 1022.55 800.473 981.119 771.119 949.169Z" fill="url(#paint2_linear_2111_2)"/>
<path d="M1241.57 1155.72C1243.73 1085.43 1285.01 1019.4 1342.94 978.499C1400.87 937.603 1473.72 920.265 1544.96 921.437C1595.4 922.267 1648.23 931.469 1694.58 911.852C1719.34 901.293 1740.06 883.26 1753.77 860.348C1768.37 835.79 1773.99 807.205 1783.19 780.218C1808.5 706.009 1865.09 640.788 1939.31 612.992C2013.53 585.195 2104.4 599.19 2160.73 654.356V1114.82L1241.57 1155.72Z" fill="url(#paint3_linear_2111_2)"/>
<path d="M779.758 1132.65C786.636 1086.46 775.452 1039.42 748.473 1001.05C721.493 962.691 680.735 935.875 634.456 926.038C578.771 914.195 521.25 927.891 465.177 937.838C409.103 947.785 348.299 953.28 297.842 927.188C239.932 897.219 209.951 833.468 187.098 772.955C164.246 712.442 142.019 647.519 91.2378 606.858C42.9403 568.177 -27.886 559.146 -84.5859 584.429V1119.36L779.758 1132.65Z" fill="url(#paint4_linear_2111_2)"/>
<g style="mix-blend-mode:overlay">
<path d="M-147.116 655.187C-120.764 618.082 -69.8959 608.604 -26.8688 608.945C18.0808 609.286 63.9591 621.022 100.679 647.285C140.315 675.614 162.109 719.598 172.996 765.649C178.375 789.57 181.921 813.857 183.601 838.303C185.761 865.503 187.381 892.937 193.386 919.669C203.32 964.505 226.087 1005.59 258.985 1038.05C292.774 1070.89 336.888 1091.4 384.071 1096.22C408.945 1098.55 434.04 1096.05 457.943 1088.88C484.467 1081.06 509.567 1069.19 535.249 1059.06C586.225 1039.01 639.469 1022.42 694.376 1017.71C742.695 1013.58 791.576 1019.1 836.05 1038.91C874.93 1056.2 909.857 1083.47 931.544 1120.04C936.955 1129.17 941.454 1138.8 944.979 1148.79C946.685 1153.61 954.526 1151.54 952.798 1146.66C923.033 1062.74 833.372 1014.99 747.209 1009.15C691.633 1005.38 636.078 1016.33 583.438 1033.26C556.698 1041.78 530.583 1052.18 504.663 1062.93C479.111 1073.58 453.039 1084.23 425.348 1087.7C375.431 1094.09 323.634 1078.84 283.847 1048.81C245.572 1019.91 218.377 977.839 205.072 932.385C190.146 881.478 193.883 827.419 183.472 775.617C174.313 729.737 155.716 684.176 119.795 652.269C85.7967 622.129 41.0416 606.346 -4.08077 602.107C-47.2807 598.039 -97.2631 602.64 -132.903 629.371C-141.082 635.5 -148.238 642.852 -154.114 651.161C-157.095 655.421 -150.075 659.362 -147.116 655.187Z" fill="white"/>
</g>
<g style="mix-blend-mode:overlay">
<path d="M2033.9 280.734C2021.31 279.243 2007.98 281.437 1995.82 284.27C1975.79 289.109 1956.54 296.664 1938.62 306.72C1913.87 320.57 1891.25 337.834 1871.45 357.989C1845.36 384.651 1823.04 414.656 1805.07 447.193C1780.81 490.262 1762.91 536.653 1749.25 583.981C1740.85 613.162 1734.29 642.727 1728.54 672.525C1723.16 700.45 1717.74 728.502 1708.69 755.595C1699.77 782.22 1686.9 807.993 1667.15 828.484C1647.41 848.974 1621.66 863.693 1594.62 873.214C1534.88 894.322 1470.92 892.661 1408.47 896.367C1374.93 898.369 1341.17 901.969 1308.87 911.575C1282.45 919.42 1257.51 931.479 1235.05 947.274C1191.25 978.061 1157.83 1021.1 1139.1 1070.81C1134.58 1082.98 1131.05 1095.49 1128.56 1108.22C1127.56 1113.24 1135.36 1115.39 1136.36 1110.35C1147 1058.09 1174.15 1010.49 1213.92 974.389C1233.45 956.511 1255.73 941.801 1279.93 930.809C1309.09 917.56 1340.89 910.851 1372.66 907.379C1435.84 900.35 1500.1 904.589 1562.52 890.68C1590.34 884.481 1617.75 874.769 1641.77 859.39C1665.19 844.452 1684.53 824.066 1698.08 800.027C1726.53 749.674 1731.91 690.758 1744.44 635.463C1756.23 583.385 1772.32 531.967 1795.33 483.595C1812.37 447.811 1833.21 413.496 1859.13 383.25C1878.38 360.386 1900.84 340.353 1925.83 323.76C1944.18 311.602 1964.18 302.065 1985.23 295.431C1999.56 291.043 2012.84 288.189 2027.31 288.338C2029.48 288.359 2031.64 288.494 2033.79 288.742C2038.95 289.339 2038.91 281.351 2033.79 280.755L2033.9 280.734Z" fill="white"/>
</g>
<path d="M2254.24 931.406C2207.32 874.513 2129.24 848.698 2054.92 851.403C1980.59 854.108 1909.44 882.16 1844.19 917.433C1811.79 934.92 1780.29 954.303 1746.19 968.276C1621.36 1019.4 1478.89 992.494 1348.53 957.221C1297.94 943.525 1245.85 928.53 1193.83 935.431C1096.63 948.318 1024.7 1035.73 994.249 1127.73H2255.17L2254.24 931.406Z" fill="url(#paint5_linear_2111_2)"/>
<path d="M-82.6831 398.309C-30.584 384.102 27.2391 401.76 67.9335 436.82C108.628 471.88 133.403 522.36 144.894 574.439C156.385 626.517 155.5 680.47 151.504 733.614C147.94 781.07 141.957 829.059 149.905 876.004C157.854 922.949 182.305 969.937 225.138 992.067C271.729 1016.22 327.976 1006.32 380.485 1009.83C430.359 1013.15 479.845 1029.77 518.919 1060.46C557.994 1091.15 586.03 1136.4 591.841 1185.34H-42.9824L-82.6831 398.309Z" fill="url(#paint6_linear_2111_2)"/>
<path style="mix-blend-mode:overlay" d="M1666.96 314.217C1642.52 314.238 1618.64 321.403 1598.33 334.806C1578.03 348.208 1562.2 367.247 1552.87 389.515C1543.53 411.784 1541.1 436.282 1545.88 459.913C1550.66 483.544 1562.44 505.247 1579.72 522.278C1597.01 539.309 1619.03 550.904 1643 555.598C1666.97 560.291 1691.81 557.872 1714.38 548.645C1736.95 539.419 1756.25 523.8 1769.82 503.763C1783.39 483.726 1790.64 460.171 1790.64 436.074C1790.64 420.063 1787.44 404.208 1781.22 389.417C1775.01 374.626 1765.89 361.188 1754.41 349.871C1742.92 338.554 1729.29 329.58 1714.28 323.462C1699.28 317.345 1683.2 314.203 1666.96 314.217ZM1666.96 514.991C1651.16 514.991 1635.71 510.371 1622.57 501.716C1609.43 493.061 1599.18 480.759 1593.13 466.365C1587.08 451.97 1585.49 436.13 1588.57 420.845C1591.64 405.56 1599.24 391.517 1610.41 380.491C1621.57 369.465 1635.8 361.951 1651.3 358.898C1666.8 355.845 1682.86 357.391 1697.47 363.339C1712.07 369.288 1724.56 379.373 1733.36 392.319C1742.15 405.265 1746.86 420.492 1746.88 436.074C1746.89 446.433 1744.84 456.692 1740.83 466.266C1736.82 475.84 1730.93 484.541 1723.51 491.87C1716.09 499.2 1707.27 505.014 1697.57 508.982C1687.86 512.949 1677.46 514.991 1666.96 514.991Z" fill="url(#paint7_linear_2111_2)"/>
<path style="mix-blend-mode:overlay" d="M432.002 631.565C407.561 631.565 383.67 638.712 363.348 652.102C343.026 665.492 327.188 684.523 317.835 706.79C308.482 729.056 306.035 753.558 310.803 777.196C315.571 800.834 327.34 822.547 344.622 839.589C361.904 856.631 383.923 868.236 407.894 872.938C431.865 877.64 456.711 875.227 479.291 866.004C501.871 856.781 521.171 841.162 534.749 821.123C548.328 801.083 555.575 777.524 555.575 753.423C555.569 721.106 542.548 690.114 519.375 667.263C496.202 644.411 464.774 631.571 432.002 631.565ZM432.002 832.339C416.195 832.339 400.743 827.717 387.601 819.057C374.458 810.397 364.214 798.089 358.165 783.688C352.116 769.288 350.534 753.442 353.617 738.154C356.701 722.866 364.313 708.824 375.49 697.802C386.667 686.78 400.907 679.274 416.41 676.233C431.913 673.193 447.982 674.753 462.586 680.718C477.189 686.683 489.671 696.784 498.453 709.745C507.234 722.705 511.922 737.942 511.922 753.529C511.922 774.431 503.502 794.476 488.514 809.256C473.526 824.036 453.198 832.339 432.002 832.339Z" fill="url(#paint8_linear_2111_2)"/>
<g style="mix-blend-mode:overlay">
<mask id="mask1_2111_2" style="mask-type:luminance" maskUnits="userSpaceOnUse" x="1389" y="954" width="697" height="155">
<path d="M1393.2 1090.56C1402.8 1060.42 1419.72 1033.04 1442.49 1010.81C1465.25 988.574 1493.17 972.154 1523.83 962.972C1554.49 953.791 1586.95 952.125 1618.41 958.119C1649.87 964.114 1679.37 977.587 1704.35 997.371C1724.65 1013.45 1741.65 1033.45 1762.9 1048.32C1784.16 1063.19 1811.94 1072.56 1836.34 1063.64C1856.35 1056.33 1870.04 1038.5 1886.46 1025.08C1901.62 1012.67 1919.47 1003.84 1938.62 999.265C1957.78 994.688 1977.74 994.484 1996.98 998.669C2016.23 1002.85 2034.25 1011.32 2049.68 1023.41C2065.11 1035.51 2077.53 1050.92 2086 1068.47V1108.75H1389.72L1393.2 1090.56Z" fill="white"/>
</mask>
<g mask="url(#mask1_2111_2)">
<path d="M2279.1 701.451L1920.56 1369.5" stroke="white" stroke-width="4.31999" stroke-miterlimit="10"/>
<path d="M2233.24 701.451L1874.71 1369.5" stroke="white" stroke-width="4.31999" stroke-miterlimit="10"/>
<path d="M2187.39 701.451L1828.85 1369.5" stroke="white" stroke-width="4.31999" stroke-miterlimit="10"/>
<path d="M2141.53 701.451L1782.99 1369.5" stroke="white" stroke-width="4.31999" stroke-miterlimit="10"/>
<path d="M2095.67 701.451L1737.14 1369.5" stroke="white" stroke-width="4.31999" stroke-miterlimit="10"/>
<path d="M2049.82 701.451L1691.28 1369.5" stroke="white" stroke-width="4.31999" stroke-miterlimit="10"/>
<path d="M2003.94 701.451L1645.42 1369.5" stroke="white" stroke-width="4.31999" stroke-miterlimit="10"/>
<path d="M1958.08 701.451L1599.57 1369.5" stroke="white" stroke-width="4.31999" stroke-miterlimit="10"/>
<path d="M1912.23 701.451L1553.71 1369.5" stroke="white" stroke-width="4.31999" stroke-miterlimit="10"/>
<path d="M1866.37 701.451L1507.83 1369.5" stroke="white" stroke-width="4.31999" stroke-miterlimit="10"/>
<path d="M1820.51 701.451L1461.98 1369.5" stroke="white" stroke-width="4.31999" stroke-miterlimit="10"/>
<path d="M1774.66 701.451L1416.12 1369.5" stroke="white" stroke-width="4.31999" stroke-miterlimit="10"/>
<path d="M1728.8 701.451L1370.26 1369.5" stroke="white" stroke-width="4.31999" stroke-miterlimit="10"/>
<path d="M1682.94 701.451L1324.4 1369.5" stroke="white" stroke-width="4.31999" stroke-miterlimit="10"/>
<path d="M1637.09 701.451L1278.55 1369.5" stroke="white" stroke-width="4.31999" stroke-miterlimit="10"/>
<path d="M1591.23 701.451L1232.69 1369.5" stroke="white" stroke-width="4.31999" stroke-miterlimit="10"/>
<path d="M1545.37 701.451L1186.83 1369.5" stroke="white" stroke-width="4.31999" stroke-miterlimit="10"/>
<path d="M1499.49 701.451L1140.98 1369.5" stroke="white" stroke-width="4.31999" stroke-miterlimit="10"/>
</g>
</g>
</g>
<defs>
<radialGradient id="paint0_radial_2111_2" cx="0" cy="0" r="1" gradientUnits="userSpaceOnUse" gradientTransform="translate(1394.24 547.686) scale(778.852 768.034)">
<stop stop-color="#460096"/>
<stop offset="1" stop-color="#1F0050"/>
</radialGradient>
<linearGradient id="paint1_linear_2111_2" x1="0.00233863" y1="676.913" x2="1920" y2="676.913" gradientUnits="userSpaceOnUse">
<stop stop-color="#17093D"/>
<stop offset="1" stop-color="#1F0050"/>
</linearGradient>
<linearGradient id="paint2_linear_2111_2" x1="0" y1="692.718" x2="1920" y2="692.718" gradientUnits="userSpaceOnUse">
<stop stop-color="#17093D"/>
<stop offset="1" stop-color="#1F0050"/>
</linearGradient>
<linearGradient id="paint3_linear_2111_2" x1="1241.57" y1="877.41" x2="2160.73" y2="877.41" gradientUnits="userSpaceOnUse">
<stop stop-color="#41018D"/>
<stop offset="1" stop-color="#6E1651"/>
</linearGradient>
<linearGradient id="paint4_linear_2111_2" x1="617.089" y1="1310.48" x2="-126.729" y2="630.547" gradientUnits="userSpaceOnUse">
<stop stop-color="#7126E2"/>
<stop offset="1" stop-color="#511EA5"/>
</linearGradient>
<linearGradient id="paint5_linear_2111_2" x1="2022.58" y1="1382.09" x2="1313.61" y2="734.039" gradientUnits="userSpaceOnUse">
<stop stop-color="#7126E2"/>
<stop offset="1" stop-color="#4F1EA2"/>
</linearGradient>
<linearGradient id="paint6_linear_2111_2" x1="-82.6831" y1="789.249" x2="591.841" y2="789.249" gradientUnits="userSpaceOnUse">
<stop stop-color="#1F0050"/>
<stop offset="1" stop-color="#94188F"/>
</linearGradient>
<linearGradient id="paint7_linear_2111_2" x1="1543.41" y1="436.074" x2="1790.53" y2="436.074" gradientUnits="userSpaceOnUse">
<stop stop-color="white"/>
<stop offset="1" stop-color="white" stop-opacity="0"/>
</linearGradient>
<linearGradient id="paint8_linear_2111_2" x1="308.471" y1="753.423" x2="555.618" y2="753.423" gradientUnits="userSpaceOnUse">
<stop stop-color="white"/>
<stop offset="1" stop-color="white" stop-opacity="0"/>
</linearGradient>
</defs>
</svg>
